<svg xmlns="http://www.w3.org/2000/svg" width="221.023" height="28.504" viewBox="0 0 221.023 28.504">
  <g id="Grupo_493" data-name="Grupo 493" transform="translate(-193.911 -441.207)">
    <g id="Grupo_492" data-name="Grupo 492" transform="translate(193.911 441.207)">
      <path id="Trazado_1453" data-name="Trazado 1453" d="M344.455,510.969a9.22,9.22,0,1,0,9.22,9.22A9.23,9.23,0,0,0,344.455,510.969Zm0,15a5.783,5.783,0,1,1,5.783-5.783A5.79,5.79,0,0,1,344.455,525.972Z" transform="translate(-314.847 -500.905)" fill="#161615"/>
      <path id="Trazado_1454" data-name="Trazado 1454" d="M557.725,510.969a9.22,9.22,0,1,0,5.156,16.864l-1.924-2.848a5.785,5.785,0,0,1-8.755-3.078h14.743v-1.719A9.231,9.231,0,0,0,557.725,510.969Zm-5.522,7.5a5.784,5.784,0,0,1,11.045,0Z" transform="translate(-497.35 -500.905)" fill="#161615"/>
      <path id="Trazado_1455" data-name="Trazado 1455" d="M1199.893,514.406a5.751,5.751,0,0,1,3.232.987l1.924-2.848a9.22,9.22,0,1,0,0,15.288l-1.924-2.848a5.783,5.783,0,1,1-3.232-10.58Z" transform="translate(-1046.878 -500.905)" fill="#161615"/>
      <path id="Trazado_1456" data-name="Trazado 1456" d="M736.373,510.969a9.22,9.22,0,1,0,5.156,16.864l-1.924-2.848a5.785,5.785,0,0,1-8.755-3.078h14.743v-1.719A9.231,9.231,0,0,0,736.373,510.969Zm-5.523,7.5a5.784,5.784,0,0,1,11.045,0Z" transform="translate(-650.226 -500.905)" fill="#161615"/>
      <path id="Trazado_1457" data-name="Trazado 1457" d="M1527.018,510.969a9.22,9.22,0,1,0,5.156,16.864l-1.924-2.848a5.785,5.785,0,0,1-8.755-3.078h14.743v-1.719A9.231,9.231,0,0,0,1527.018,510.969Zm-5.523,7.5a5.784,5.784,0,0,1,11.045,0Z" transform="translate(-1326.811 -500.905)" fill="#161615"/>
      <path id="Trazado_1458" data-name="Trazado 1458" d="M203.131,451.271a9.174,9.174,0,0,0-5.783,2.047V441.207h-3.437v28.5h3.437v-9.22a5.783,5.783,0,0,1,11.566,0v9.22h3.437v-9.22A9.23,9.23,0,0,0,203.131,451.271Z" transform="translate(-193.911 -441.207)" fill="#161615"/>
      <rect id="Rectángulo_77" data-name="Rectángulo 77" width="3.437" height="28.504" transform="translate(71.542 0)" fill="#161615"/>
      <path id="Trazado_1459" data-name="Trazado 1459" d="M474.057,441.207H470.62v10.064h-4.079v3.437h4.079v15h3.437v-15h4.079v-3.437h-4.079Z" transform="translate(-427.211 -441.207)" fill="#161615"/>
      <path id="Trazado_1460" data-name="Trazado 1460" d="M1657.217,451.271h-4.079V441.207H1649.7v10.064h-4.079v3.437h4.079v15h3.437v-15h4.079Z" transform="translate(-1436.195 -441.207)" fill="#161615"/>
      <path id="Trazado_1461" data-name="Trazado 1461" d="M879.749,518.48h-5.808a2.047,2.047,0,1,1,0-4.094h9.993v-3.417h-9.993a5.464,5.464,0,1,0,0,10.929h5.808a2.047,2.047,0,0,1,0,4.094h-9.993v3.417h9.993a5.464,5.464,0,0,0,0-10.929Z" transform="translate(-771.163 -500.905)" fill="#161615"/>
      <path id="Trazado_1462" data-name="Trazado 1462" d="M1073.051,510.969h-4.475l-5.447,6.539-5.447-6.539h-4.473l7.683,9.224-7.676,9.216h4.473l5.44-6.531,5.439,6.531h4.472l-7.675-9.215Z" transform="translate(-929.246 -500.905)" fill="#161615"/>
      <path id="Trazado_1463" data-name="Trazado 1463" d="M1317.242,513.016a9.22,9.22,0,1,0,0,14.347v2.047h3.437v-18.44h-3.437Zm-5.783,12.957a5.783,5.783,0,1,1,5.783-5.783A5.79,5.79,0,0,1,1311.459,525.972Z" transform="translate(-1142.349 -500.905)" fill="#161615"/>
      <path id="Trazado_1464" data-name="Trazado 1464" d="M1463.106,510.969a9.174,9.174,0,0,0-5.783,2.046v-2.046h-3.437v18.44h3.437v-9.22a5.79,5.79,0,0,1,5.783-5.783Z" transform="translate(-1272.119 -500.905)" fill="#161615"/>
    </g>
  </g>
</svg>
